<?xml version="1.0" encoding="UTF-8" standalone="no"?>
<!-- Generator: Adobe Illustrator 15.0.0, SVG Export Plug-In . SVG Version: 6.00 Build 0)  -->

<svg
   xmlns:dc="http://purl.org/dc/elements/1.1/"
   xmlns:cc="http://creativecommons.org/ns#"
   xmlns:rdf="http://www.w3.org/1999/02/22-rdf-syntax-ns#"
   xmlns:svg="http://www.w3.org/2000/svg"
   xmlns="http://www.w3.org/2000/svg"
   xmlns:sodipodi="http://sodipodi.sourceforge.net/DTD/sodipodi-0.dtd"
   xmlns:inkscape="http://www.inkscape.org/namespaces/inkscape"
   version="1.1"
   id="facebook-master-header-landscape-arrow-layer"
   x="0px"
   y="0px"
   width="32px"
   height="32px"
   viewBox="0 0 32 32"
   style="enable-background:new 0 0 32 32;"
   xml:space="preserve"
   inkscape:version="0.48.2 r9819"
   sodipodi:docname="dropdown_list_arrow.svg"><metadata
   id="metadata24"><rdf:RDF><cc:Work
       rdf:about=""><dc:format>image/svg+xml</dc:format><dc:type
         rdf:resource="http://purl.org/dc/dcmitype/StillImage" /><dc:title></dc:title></cc:Work></rdf:RDF></metadata><defs
   id="defs22" /><sodipodi:namedview
   pagecolor="#ffffff"
   bordercolor="#666666"
   borderopacity="1"
   objecttolerance="10"
   gridtolerance="10"
   guidetolerance="10"
   inkscape:pageopacity="0"
   inkscape:pageshadow="2"
   inkscape:window-width="640"
   inkscape:window-height="480"
   id="namedview20"
   showgrid="false"
   inkscape:zoom="7.375"
   inkscape:cx="16"
   inkscape:cy="16"
   inkscape:window-x="957"
   inkscape:window-y="238"
   inkscape:window-maximized="0"
   inkscape:current-layer="facebook-master-header-landscape-arrow" />
<g
   id="facebook-master-header-landscape-arrow">
	<g
   id="g4">
		<path
   style="opacity:0;fill:#191919;"
   d="M32,16c0,11.854-4.146,16-16,16C4.145,32,0,27.854,0,16C0,4.145,4.145,0,16,0    C27.854,0,32,4.145,32,16z"
   id="path6" />
	</g>
	<g
   id="g8"
   transform="matrix(0,-1,1,0,-5.792375,31.792375)">
		<g
   id="g10">
			<g
   id="g12">
				<path
   style="fill:#fd6500"
   d="M 23.293,18.707 C 23.682,18.318 23.55,18 23,18 H 9 c -0.55,0 -0.682,0.318 -0.293,0.707 l 6.586,6.586 c 0.389,0.389 1.025,0.389 1.414,0 l 6.586,-6.586 z"
   id="path14"
   inkscape:connector-curvature="0" />
			</g>
			<g
   id="g16">
				
			</g>
		</g>
	</g>
</g>
</svg>