<?xml version="1.0" encoding="iso-8859-1"?>
<!-- Generator: Adobe Illustrator 15.0.0, SVG Export Plug-In . SVG Version: 6.00 Build 0)  -->
<!DOCTYPE svg PUBLIC "-//W3C//DTD SVG 1.1//EN" "http://www.w3.org/Graphics/SVG/1.1/DTD/svg11.dtd">
<svg version="1.1" id="facebook-master-header-landscape-arrow-layer"
	 xmlns="http://www.w3.org/2000/svg" xmlns:xlink="http://www.w3.org/1999/xlink" x="0px" y="0px" width="32px" height="32px"
	 viewBox="0 0 32 32" style="enable-background:new 0 0 32 32;" xml:space="preserve">
<g id="facebook-master-header-landscape-arrow">
	<g>
		<path style="opacity:0;fill:#191919;" d="M32,16c0,11.854-4.146,16-16,16C4.145,32,0,27.854,0,16C0,4.145,4.145,0,16,0
			C27.854,0,32,4.145,32,16z"/>
	</g>
	<g>
		<g>
			<g>
				<path style="fill:#Fd6500" d="M23.293,18.707C23.682,18.318,23.55,18,23,18H9c-0.55,0-0.682,0.318-0.293,0.707l6.586,6.586
					c0.389,0.389,1.025,0.389,1.414,0L23.293,18.707z"/>
			</g>
			<g>
				<path style="fill:#Fd6500;" d="M23.293,13.293C23.682,13.682,23.55,14,23,14H9c-0.55,0-0.682-0.318-0.293-0.707l6.586-6.586
					c0.389-0.389,1.025-0.389,1.414,0L23.293,13.293z"/>
			</g>
		</g>
	</g>
</g>
</svg>
