<?xml version="1.0" encoding="UTF-8" standalone="no"?>
<!-- Created with Inkscape (http://www.inkscape.org/) -->

<svg
   xmlns:dc="http://purl.org/dc/elements/1.1/"
   xmlns:cc="http://creativecommons.org/ns#"
   xmlns:rdf="http://www.w3.org/1999/02/22-rdf-syntax-ns#"
   xmlns:svg="http://www.w3.org/2000/svg"
   xmlns="http://www.w3.org/2000/svg"
   xmlns:sodipodi="http://sodipodi.sourceforge.net/DTD/sodipodi-0.dtd"
   xmlns:inkscape="http://www.inkscape.org/namespaces/inkscape"
   width="550"
   height="550"
   id="svg2"
   version="1.1"
   inkscape:version="0.47 r22583"
   inkscape:export-xdpi="5.2399998"
   inkscape:export-ydpi="5.2399998"
   sodipodi:docname="fuel_green.svg">
  <defs
     id="defs4">
    <inkscape:perspective
       sodipodi:type="inkscape:persp3d"
       inkscape:vp_x="0 : 526.18109 : 1"
       inkscape:vp_y="0 : 1000 : 0"
       inkscape:vp_z="744.09448 : 526.18109 : 1"
       inkscape:persp3d-origin="372.04724 : 350.78739 : 1"
       id="perspective10" />
    <inkscape:perspective
       id="perspective2884"
       inkscape:persp3d-origin="0.5 : 0.33333333 : 1"
       inkscape:vp_z="1 : 0.5 : 1"
       inkscape:vp_y="0 : 1000 : 0"
       inkscape:vp_x="0 : 0.5 : 1"
       sodipodi:type="inkscape:persp3d" />
  </defs>
  <sodipodi:namedview
     id="base"
     pagecolor="#ffffff"
     bordercolor="#666666"
     borderopacity="1.0"
     inkscape:pageopacity="0.0"
     inkscape:pageshadow="2"
     inkscape:zoom="0.98994949"
     inkscape:cx="289.11684"
     inkscape:cy="250.7812"
     inkscape:document-units="px"
     inkscape:current-layer="layer1"
     showgrid="true"
     inkscape:window-width="1440"
     inkscape:window-height="858"
     inkscape:window-x="-4"
     inkscape:window-y="19"
     inkscape:window-maximized="1">
    <inkscape:grid
       type="xygrid"
       id="grid2890"
       empspacing="5"
       visible="true"
       enabled="true"
       snapvisiblegridlinesonly="true" />
  </sodipodi:namedview>
  <metadata
     id="metadata7">
    <rdf:RDF>
      <cc:Work
         rdf:about="">
        <dc:format>image/svg+xml</dc:format>
        <dc:type
           rdf:resource="http://purl.org/dc/dcmitype/StillImage" />
        <dc:title></dc:title>
      </cc:Work>
    </rdf:RDF>
  </metadata>
  <g
     inkscape:label="Layer 1"
     inkscape:groupmode="layer"
     id="layer1"
     transform="translate(-60,-337.36218)">
    <path
       style="fill:#fff;fill-opacity:1;stroke:#969696;stroke-width:0;stroke-linecap:round;stroke-linejoin:round;stroke-miterlimit:4;stroke-opacity:1;stroke-dashoffset:0"
       d="M 125 16 C 105 16 95 26 95 46 C 95 66.45432 100 445 100 445.5 C 100 491 70 491 70 491 L 70 536 L 385 536 L 385 491 C 385 491 355 490 355 445 L 355 140 L 355 46 C 355 25.59044 345 16 325 16 L 125 16 z M 140 50 L 310 50 L 310 200 L 140 200 L 140 50 z "
       transform="translate(60,337.36218)"
       id="rect2907" />
    <path
       id="rect2916"
       style="fill:#fff;fill-opacity:1;stroke:#969696;stroke-width:0;stroke-linecap:round;stroke-linejoin:round;stroke-miterlimit:4;stroke-opacity:1;stroke-dashoffset:0"
       d="m 520,473.36218 c -15,-25.00001 -30,-60 -30,-60 l -40,-45 25,-15 40,40 45,45 c 20,30 20,30 30,70 -50,30 -20,80 -10,150 10.49673,73.47708 30,170 -80,170 -110,0 5,-230 -85,-230 0,-17.25889 0,-20 0,-35 135,-35 20,230 95,230 57.5,0 48.99352,-64.02593 30,-140 -25,-100 -5,-154.99999 -20,-180 z"
       sodipodi:nodetypes="ccccccccsccssc" />
  </g>
</svg>
