<?xml version="1.0" encoding="UTF-8" standalone="no"?>
<!-- Generator: Adobe Illustrator 14.0.0, SVG Export Plug-In  -->

<svg
   xmlns:dc="http://purl.org/dc/elements/1.1/"
   xmlns:cc="http://creativecommons.org/ns#"
   xmlns:rdf="http://www.w3.org/1999/02/22-rdf-syntax-ns#"
   xmlns:svg="http://www.w3.org/2000/svg"
   xmlns="http://www.w3.org/2000/svg"
   xmlns:sodipodi="http://sodipodi.sourceforge.net/DTD/sodipodi-0.dtd"
   xmlns:inkscape="http://www.inkscape.org/namespaces/inkscape"
   version="1.1"
   x="0px"
   y="0px"
   width="50px"
   height="67px"
   viewBox="0 -0.336 50 67"
   xml:space="preserve"
   id="svg2"
   inkscape:version="0.48.2 r9819"
   sodipodi:docname="poi-vehicle.svg"><metadata
   id="metadata16"><rdf:RDF><cc:Work
       rdf:about=""><dc:format>image/svg+xml</dc:format><dc:type
         rdf:resource="http://purl.org/dc/dcmitype/StillImage" /><dc:title></dc:title></cc:Work></rdf:RDF></metadata><sodipodi:namedview
   pagecolor="#ffffff"
   bordercolor="#666666"
   borderopacity="1"
   objecttolerance="10"
   gridtolerance="10"
   guidetolerance="10"
   inkscape:pageopacity="0"
   inkscape:pageshadow="2"
   inkscape:window-width="1680"
   inkscape:window-height="988"
   id="namedview14"
   showgrid="false"
   inkscape:zoom="3.5223881"
   inkscape:cx="154.69068"
   inkscape:cy="-27.172001"
   inkscape:window-x="-8"
   inkscape:window-y="-8"
   inkscape:window-maximized="0"
   inkscape:current-layer="layer1" />
<defs
   id="defs4">
</defs>
<path
   fill="#919191"
   d="M34.282,61.076c0,2.804-4.176,5.074-9.324,5.074s-9.324-2.271-9.324-5.074c0-2.803,4.176-5.074,9.324-5.074  S34.282,58.273,34.282,61.076"
   id="path6" />
<path
   fill="#Fd6500"
   d="M24.988,61.527c-2.729-1.735-14.298-9.494-20.173-19.831c-2.517-3.705-3.668-8.999-3.668-16.74  c0-17.801,6.008-23.808,23.808-23.808c17.805,0,23.813,6.007,23.813,23.808c0,7.342-1.026,12.444-3.23,16.056  C39.748,51.721,27.773,59.757,24.988,61.527"
   id="path8" />
<path
   fill="#FFFFFF"
   d="M24.955,2.295c17.158,0,22.666,5.506,22.666,22.661c0,7.123-0.973,12.035-3.062,15.458l-0.032,0.052  l-0.028,0.053c-5.275,9.76-15.963,17.314-19.511,19.643c-3.475-2.277-13.797-9.566-19.176-19.033l-0.045-0.081L5.715,40.97  c-2.332-3.426-3.42-8.514-3.42-16.014C2.295,7.801,7.801,2.295,24.955,2.295 M24.955,0C6.467,0,0,6.465,0,24.956  c0,7.745,1.139,13.372,3.818,17.306c6.891,12.126,21.17,20.616,21.17,20.616s14.789-8.798,21.53-21.269  c2.376-3.896,3.397-9.329,3.397-16.654C49.916,6.465,43.445,0,24.955,0"
   id="path10" />

<g
   inkscape:groupmode="layer"
   id="layer1"
   inkscape:label="icon"><path
     inkscape:connector-curvature="0"
     style="fill:#ffffff;fill-opacity:1;stroke:#969696;stroke-width:0;stroke-linecap:round;stroke-linejoin:round;stroke-miterlimit:4;stroke-opacity:1;stroke-dashoffset:0"
     d="m 17.229643,11.897032 c -0.917095,0 -1.375644,0.53309 -1.375644,1.599259 0,1.090383 0.229273,21.270037 0.229273,21.296686 0,2.425529 -1.375644,2.425529 -1.375644,2.425529 l 0,2.39888 14.444267,0 0,-2.39888 c 0,0 -1.375644,-0.05335 -1.375644,-2.452178 l 0,-16.259057 0,-5.01098 c 0,-1.088007 -0.458548,-1.599259 -1.375644,-1.599259 l -9.170964,0 z m 0.687822,1.812491 7.795321,0 0,7.996249 -7.795321,0 0,-7.996249 z"
     id="rect2907" /><path
     inkscape:connector-curvature="0"
     id="rect2916"
     style="fill:#ffffff;fill-opacity:1;stroke:#969696;stroke-width:0;stroke-linecap:round;stroke-linejoin:round;stroke-miterlimit:4;stroke-opacity:1;stroke-dashoffset:0"
     d="m 32.591007,18.294037 c -0.687823,-1.332713 -1.375644,-3.198503 -1.375644,-3.198503 l -1.834193,-2.398866 1.14637,-0.799636 1.834194,2.132335 2.063466,2.39888 c 0.917096,1.599244 0.917096,1.599244 1.375643,3.731593 -2.29274,1.599244 -0.917095,4.26467 -0.458547,7.996249 0.481327,3.916934 1.375645,9.062417 -3.668385,9.062417 -5.04403,0 0.229273,-12.260919 -3.89766,-12.260919 0,-0.92004 0,-1.066168 0,-1.86579 6.190401,-1.865803 0.917096,12.260919 4.356208,12.260919 2.636652,0 2.246588,-3.413118 1.375644,-7.463172 -1.146369,-5.330837 -0.229275,-8.262794 -0.917096,-9.595507 z"
     sodipodi:nodetypes="ccccccccsccssc" /></g></svg>