<?xml version="1.0" encoding="UTF-8" standalone="no"?>
<!-- Generator: Adobe Illustrator 14.0.0, SVG Export Plug-In  -->

<svg
   xmlns:dc="http://purl.org/dc/elements/1.1/"
   xmlns:cc="http://creativecommons.org/ns#"
   xmlns:rdf="http://www.w3.org/1999/02/22-rdf-syntax-ns#"
   xmlns:svg="http://www.w3.org/2000/svg"
   xmlns="http://www.w3.org/2000/svg"
   xmlns:sodipodi="http://sodipodi.sourceforge.net/DTD/sodipodi-0.dtd"
   xmlns:inkscape="http://www.inkscape.org/namespaces/inkscape"
   version="1.1"
   x="0px"
   y="0px"
   width="50px"
   height="67px"
   viewBox="0 -0.336 50 67"
   xml:space="preserve"
   id="svg2"
   inkscape:version="0.48.2 r9819"
   sodipodi:docname="poi-parking.svg"><metadata
   id="metadata16"><rdf:RDF><cc:Work
       rdf:about=""><dc:format>image/svg+xml</dc:format><dc:type
         rdf:resource="http://purl.org/dc/dcmitype/StillImage" /><dc:title /></cc:Work></rdf:RDF></metadata><sodipodi:namedview
   pagecolor="#ffffff"
   bordercolor="#666666"
   borderopacity="1"
   objecttolerance="10"
   gridtolerance="10"
   guidetolerance="10"
   inkscape:pageopacity="0"
   inkscape:pageshadow="2"
   inkscape:window-width="919"
   inkscape:window-height="708"
   id="namedview14"
   showgrid="false"
   inkscape:zoom="3.5223881"
   inkscape:cx="68.446266"
   inkscape:cy="21.311248"
   inkscape:window-x="519"
   inkscape:window-y="132"
   inkscape:window-maximized="0"
   inkscape:current-layer="layer1" />
<defs
   id="defs4">
</defs>
<path
   fill="#919191"
   d="M34.282,61.076c0,2.804-4.176,5.074-9.324,5.074s-9.324-2.271-9.324-5.074c0-2.803,4.176-5.074,9.324-5.074  S34.282,58.273,34.282,61.076"
   id="path6" />
<path
   fill="#Fd6500"
   d="M24.988,61.527c-2.729-1.735-14.298-9.494-20.173-19.831c-2.517-3.705-3.668-8.999-3.668-16.74  c0-17.801,6.008-23.808,23.808-23.808c17.805,0,23.813,6.007,23.813,23.808c0,7.342-1.026,12.444-3.23,16.056  C39.748,51.721,27.773,59.757,24.988,61.527"
   id="path8" />
<path
   fill="#FFFFFF"
   d="M24.955,2.295c17.158,0,22.666,5.506,22.666,22.661c0,7.123-0.973,12.035-3.062,15.458l-0.032,0.052  l-0.028,0.053c-5.275,9.76-15.963,17.314-19.511,19.643c-3.475-2.277-13.797-9.566-19.176-19.033l-0.045-0.081L5.715,40.97  c-2.332-3.426-3.42-8.514-3.42-16.014C2.295,7.801,7.801,2.295,24.955,2.295 M24.955,0C6.467,0,0,6.465,0,24.956  c0,7.745,1.139,13.372,3.818,17.306c6.891,12.126,21.17,20.616,21.17,20.616s14.789-8.798,21.53-21.269  c2.376-3.896,3.397-9.329,3.397-16.654C49.916,6.465,43.445,0,24.955,0"
   id="path10" />

<g
   inkscape:groupmode="layer"
   id="layer1"
   inkscape:label="icon"><text
   xml:space="preserve"
   style="font-size:36.25454712px;font-style:normal;font-variant:normal;font-weight:normal;font-stretch:normal;text-align:center;line-height:125%;letter-spacing:0px;word-spacing:0px;writing-mode:lr-tb;text-anchor:middle;fill:#ffffff;fill-opacity:1;stroke:none;font-family:Sans;-inkscape-font-specification:Sans"
   x="24.645344"
   y="39.26466"
   id="text3004"
   sodipodi:linespacing="125%"
   transform="scale(1.0173192,0.98297565)"><tspan
     sodipodi:role="line"
     id="tspan3006"
     x="24.645344"
     y="39.26466">P</tspan></text>

</g></svg>