<?xml version="1.0" encoding="UTF-8" standalone="no"?>
<!-- Generator: Adobe Illustrator 14.0.0, SVG Export Plug-In  -->

<svg
   xmlns:dc="http://purl.org/dc/elements/1.1/"
   xmlns:cc="http://creativecommons.org/ns#"
   xmlns:rdf="http://www.w3.org/1999/02/22-rdf-syntax-ns#"
   xmlns:svg="http://www.w3.org/2000/svg"
   xmlns="http://www.w3.org/2000/svg"
   xmlns:sodipodi="http://sodipodi.sourceforge.net/DTD/sodipodi-0.dtd"
   xmlns:inkscape="http://www.inkscape.org/namespaces/inkscape"
   version="1.1"
   x="0px"
   y="0px"
   width="50px"
   height="67px"
   viewBox="0 -0.336 50 67"
   xml:space="preserve"
   id="svg2"
   inkscape:version="0.48.2 r9819"
   sodipodi:docname="poi-car.svg"><metadata
   id="metadata16"><rdf:RDF><cc:Work
       rdf:about=""><dc:format>image/svg+xml</dc:format><dc:type
         rdf:resource="http://purl.org/dc/dcmitype/StillImage" /><dc:title /></cc:Work></rdf:RDF></metadata><sodipodi:namedview
   pagecolor="#ffffff"
   bordercolor="#666666"
   borderopacity="1"
   objecttolerance="10"
   gridtolerance="10"
   guidetolerance="10"
   inkscape:pageopacity="0"
   inkscape:pageshadow="2"
   inkscape:window-width="919"
   inkscape:window-height="835"
   id="namedview14"
   showgrid="false"
   inkscape:zoom="3.5223881"
   inkscape:cx="68.446266"
   inkscape:cy="21.311248"
   inkscape:window-x="519"
   inkscape:window-y="5"
   inkscape:window-maximized="0"
   inkscape:current-layer="svg2" />
<defs
   id="defs4">
</defs>
<path
   fill="#919191"
   d="M34.282,61.076c0,2.804-4.176,5.074-9.324,5.074s-9.324-2.271-9.324-5.074c0-2.803,4.176-5.074,9.324-5.074  S34.282,58.273,34.282,61.076"
   id="path6" />
<path
   fill="#Fd6500"
   d="M24.988,61.527c-2.729-1.735-14.298-9.494-20.173-19.831c-2.517-3.705-3.668-8.999-3.668-16.74  c0-17.801,6.008-23.808,23.808-23.808c17.805,0,23.813,6.007,23.813,23.808c0,7.342-1.026,12.444-3.23,16.056  C39.748,51.721,27.773,59.757,24.988,61.527"
   id="path8" />
<path
   d="M24.955,2.295c17.158,0,22.666,5.506,22.666,22.661c0,7.123-0.973,12.035-3.062,15.458l-0.032,0.052  l-0.028,0.053c-5.275,9.76-15.963,17.314-19.511,19.643c-3.475-2.277-13.797-9.566-19.176-19.033l-0.045-0.081L5.715,40.97  c-2.332-3.426-3.42-8.514-3.42-16.014C2.295,7.801,7.801,2.295,24.955,2.295 M24.955,0C6.467,0,0,6.465,0,24.956  c0,7.745,1.139,13.372,3.818,17.306c6.891,12.126,21.17,20.616,21.17,20.616s14.789-8.798,21.53-21.269  c2.376-3.896,3.397-9.329,3.397-16.654C49.916,6.465,43.445,0,24.955,0"
   id="path10"
   fill="#FFFFFF" />

<g
   inkscape:groupmode="layer"
   id="layer1"
   inkscape:label="icon"><path
     inkscape:connector-curvature="0"
     d="m 17.576184,32.728749 c 0,0.377618 -0.36077,0.684369 -0.80562,0.684369 h -3.017347 c -0.445447,0 -0.806217,-0.306244 -0.806217,-0.684369 v -6.109715 c 0,-0.377618 0.360174,-0.684369 0.806217,-0.684369 h 3.019136 c 0.444255,0 0.80562,0.306245 0.80562,0.684369 v 6.109715 z"
     id="path15"
     style="fill:#ffffff" /><path
     inkscape:connector-curvature="0"
     d="m 38.166897,32.728749 c 0,0.377618 -0.360174,0.684369 -0.806216,0.684369 h -3.019137 c -0.444849,0 -0.80562,-0.306244 -0.80562,-0.684369 v -6.109715 c 0,-0.377618 0.360175,-0.684369 0.80562,-0.684369 h 3.019137 c 0.445446,0 0.806216,0.306245 0.806216,0.684369 v 6.109715 z"
     id="path28"
     style="fill:#ffffff" /><path
     inkscape:connector-curvature="0"
     d="M 35.03625,14.581831 C 34.875245,14.262425 34.612867,13.783569 33.586015,13.624119 32.419625,13.442903 30.314638,13.042 25.613301,13.042 c -4.700146,0 -7.000724,0.384705 -8.163536,0.582119 -0.939789,0.158943 -1.289826,0.638306 -1.450831,0.957712 -0.161601,0.319406 -2.630936,5.015333 -2.846801,7.476428 l 1.396566,2.689895 h 21.938382 l 1.396567,-2.689895 C 37.668976,19.598175 35.194273,14.90073 35.033269,14.581831 z"
     id="path37"
     style="fill:#ffffff" /><path
     inkscape:connector-curvature="0"
     d="m 38.906327,23.652759 c -0.03995,-0.456584 -0.241508,-1.994895 -2.686394,-2.359859 -2.443693,-0.364963 -2.830105,1.232067 -4.350705,2.291524 -1.75197,1.221943 -4.049567,1.071604 -6.249368,1.071604 -2.20159,0 -4.692393,0.150339 -6.446152,-1.071604 -1.520599,-1.059963 -1.907011,-2.656487 -4.350705,-2.291524 -2.44429,0.364964 -2.64644,1.903275 -2.685796,2.359859 -0.21527,2.461603 0.728695,5.370678 1.128225,6.291944 0.264763,0.612996 1.288634,0.684369 1.288634,0.684369 h 21.938382 c 0,0 0.998825,-0.003 1.288635,-0.684369 0.393566,-0.921266 1.347669,-3.826798 1.132996,-6.291944 z"
     id="path48"
     style="fill:#ffffff" /><path
     inkscape:connector-curvature="0"
     d="m 33.587208,13.625131 c -1.16639,-0.181216 -3.271377,-0.582119 -7.972715,-0.582119 -4.700145,0 -7.000723,0.384705 -8.163535,0.582119 -0.152656,0.02581 -0.286231,0.06023 -0.409668,0.100732 -1.082309,1.555016 -2.862901,7.390377 -2.223057,7.299263 2.443694,-0.364964 2.830105,1.231055 4.350705,2.290509 1.753162,1.221945 4.243965,1.071605 6.446151,1.071605 2.202187,0 4.499784,0.15034 6.249368,-1.071605 1.520599,-1.059961 1.907011,-2.655473 4.350705,-2.290509 0.639845,0.09516 -1.075153,-5.74526 -2.199205,-7.299263 -0.125226,-0.04556 -0.268341,-0.08099 -0.429346,-0.1063 z"
     id="path57"
     style="fill:#ffffff" /><path
     inkscape:connector-curvature="0"
     d="m 14.821215,21.293913 c 2.443693,-0.364963 2.830104,1.232067 4.350705,2.291522 1.753162,1.221944 4.243965,1.071605 6.446151,1.071605 2.202186,0 4.499784,0.150339 6.249368,-1.071605 1.5206,-1.059961 1.907011,-2.656485 4.350705,-2.291522 0.730484,0.109337 1.256432,0.323961 1.641651,0.581612 -0.02385,-0.181216 -0.05546,-0.369519 -0.0972,-0.56744 -0.376275,-0.22981 -0.8736,-0.420136 -1.544453,-0.520363 -2.443694,-0.364962 -2.830105,1.232067 -4.350705,2.291524 -1.75197,1.221943 -4.049567,1.157656 -6.249368,1.157656 -2.201591,0 -4.692392,0.06429 -6.446151,-1.157656 -1.520601,-1.059962 -1.907012,-2.656486 -4.350705,-2.291524 -0.670854,0.100227 -1.168179,0.290553 -1.543856,0.520363 -0.04175,0.197921 -0.07394,0.386224 -0.0978,0.566934 0.382833,-0.258158 0.908185,-0.470757 1.641652,-0.582119 z"
     id="path59"
     style="fill:#ffffff;fill-opacity:0.2;stroke-opacity:0.2" /><path
     inkscape:connector-curvature="0"
     d="m 16.78905,14.440097 c 1.257029,-0.214118 3.747831,-0.630206 8.831406,-0.630206 5.083575,0 7.358512,0.433805 8.622697,0.630206 0.07513,0.01165 0.144903,0.02581 0.212288,0.04049 -0.15206,-0.30523 -0.300542,-0.563389 -0.44008,-0.756246 -0.126418,-0.03949 -0.268937,-0.0739 -0.432328,-0.09871 -1.166389,-0.181216 -3.271376,-0.582118 -7.972714,-0.582118 -4.700145,0 -7.000724,0.384704 -8.163535,0.582118 -0.152656,0.02581 -0.286231,0.06023 -0.409667,0.100733 -0.133575,0.191339 -0.277286,0.447978 -0.425768,0.749667 0.05963,-0.02025 0.119262,-0.03037 0.178893,-0.04049 z"
     id="path61"
     style="fill:#ffffff;fill-opacity:0.35;stroke-opacity:0.35" /><path
     inkscape:connector-curvature="0"
     d="m 14.141416,22.078507 c 0.223023,-0.03341 0.434713,-0.05062 0.62792,-0.05062 1.099601,0 1.617202,0.532007 2.333971,1.268514 0.358384,0.366987 0.763282,0.782064 1.282074,1.14399 1.66133,1.157656 3.870673,1.254844 5.81227,1.254844 0.243296,0 0.486592,-0.001 0.727504,-0.003 0.23435,-0.002 0.466913,-0.003 0.695898,-0.003 0.23137,0 0.463336,0.001 0.695301,0.003 0.235544,0.002 0.471685,0.003 0.707229,0.003 1.93623,0 3.964889,-0.09668 5.627412,-1.254844 0.518196,-0.361926 0.924286,-0.778015 1.281478,-1.145003 0.71677,-0.735494 1.23437,-1.267501 2.333375,-1.267501 0.193803,0 0.406091,0.0167 0.629112,0.05062 0.784152,0.116424 1.381063,0.364963 1.793115,0.73752 -0.280864,-0.597305 -0.930249,-1.292304 -2.470528,-1.522621 -2.443693,-0.364963 -2.830104,1.232068 -4.350705,2.291524 -1.751969,1.221943 -4.049566,1.071604 -6.249367,1.071604 -2.20159,0 -4.692393,0.150339 -6.446152,-1.071604 -1.5206,-1.059963 -1.907011,-2.656487 -4.350705,-2.291524 -1.539085,0.230317 -2.188471,0.924304 -2.468738,1.521608 0.407878,-0.379643 1.004788,-0.627676 1.788941,-0.744099 z"
     id="path63"
     style="fill:#ffffff;fill-opacity:0.35;stroke-opacity:0.35" /><path
     inkscape:connector-curvature="0"
     d="M 33.438129,28.167976 H 17.600037 c -0.890297,0 -1.61124,0.611984 -1.61124,1.36722 v 1.094383 h 19.064149 v -1.094383 c -0.006,-0.754225 -0.727502,-1.366714 -1.616009,-1.366714 z"
     id="path70"
     style="fill:#ffffff" /><path
     inkscape:connector-curvature="0"
     d="M 33.438129,28.167976 H 17.600037 c -0.890297,0 -1.61124,0.611984 -1.61124,1.36722 v 0.41052 c 0,-0.755237 0.720943,-1.36722 1.61124,-1.36722 h 15.838092 c 0.8897,0 1.611239,0.611983 1.611239,1.36722 v -0.41052 c 0,-0.754225 -0.721539,-1.366714 -1.610046,-1.366714 z"
     id="path72"
     style="fill:#ffffff" /><ellipse
     sodipodi:ry="3.1719999"
     sodipodi:rx="3.5350001"
     sodipodi:cy="31.719999"
     sodipodi:cx="12.55"
     cx="12.55"
     cy="31.719999"
     rx="3.5350001"
     ry="3.1719999"
     transform="matrix(-0.57454829,0.13555774,-0.15969282,-0.48771426,27.391806,37.862328)"
     id="ellipse74"
     style="fill:#ffffff;fill-opacity:0.2;stroke-opacity:0.2" /><path
     inkscape:connector-curvature="0"
     d="m 13.034063,24.280435 c 0.280266,0.85445 1.415648,1.331786 2.537314,1.067555 1.122263,-0.264738 1.804446,-1.171324 1.525371,-2.026785 -0.280268,-0.854449 -1.416245,-1.331787 -2.537912,-1.066543 -1.122859,0.263218 -1.805637,1.169299 -1.524773,2.02476 z"
     id="path83"
     style="fill:#ffffff" /><path
     inkscape:connector-curvature="0"
     d="m 14.785435,24.736006 c -0.701264,0 -1.282074,-0.338135 -1.447252,-0.840276 -0.09839,-0.299665 -0.03518,-0.620083 0.178297,-0.90355 0.224214,-0.29764 0.582599,-0.516314 1.00956,-0.617045 0.163389,-0.03846 0.330357,-0.05821 0.494939,-0.05821 0.701862,0 1.282671,0.338134 1.44785,0.840276 0.208114,0.634761 -0.325587,1.317106 -1.18905,1.520595 -0.161004,0.04049 -0.327972,0.06074 -0.494939,0.06074 z"
     id="path90"
     style="fill:#ffffff" /><ellipse
     sodipodi:ry="3.1719999"
     sodipodi:rx="3.5350001"
     sodipodi:cy="31.719999"
     sodipodi:cx="47.400002"
     cx="47.400002"
     cy="31.719999"
     rx="3.5350001"
     ry="3.1719999"
     transform="matrix(0.57454829,0.13555774,-0.15969282,0.48771426,13.727933,2.2015825)"
     id="ellipse92"
     style="fill:#ffffff;fill-opacity:0.2;stroke-opacity:0.2" /><path
     inkscape:connector-curvature="0"
     d="m 38.005893,24.280435 c -0.279672,0.85445 -1.41565,1.331786 -2.536719,1.067555 -1.122263,-0.264738 -1.805042,-1.171324 -1.525371,-2.026785 0.280269,-0.854449 1.416245,-1.331787 2.537316,-1.066543 1.121069,0.263218 1.800866,1.169299 1.526562,2.02476 z"
     id="path101"
     style="fill:#ffffff" /><path
     inkscape:connector-curvature="0"
     d="m 36.25273,24.736006 c -0.166371,0 -0.332743,-0.01974 -0.49494,-0.05821 -0.863463,-0.203489 -1.397163,-0.885834 -1.18905,-1.520595 0.164583,-0.502141 0.745988,-0.840276 1.44785,-0.840276 0.165179,0 0.332147,0.01974 0.49494,0.05821 0.427558,0.100731 0.785941,0.320418 1.009559,0.617044 0.21348,0.283975 0.27669,0.603885 0.178298,0.90355 -0.166968,0.501129 -0.751355,0.840276 -1.449043,0.840276 z"
     id="path108"
     style="fill:#ffffff" /><path
     inkscape:connector-curvature="0"
     d="m 35.817421,19.861395 c -0.134767,-0.36547 -1.530738,-4.172526 -1.530738,-4.172526 0,0 -0.03995,-0.411027 -0.644614,-0.513278 -0.591543,-0.100226 -3.351284,-0.649947 -8.187388,-0.649947 -4.833719,0 -7.465848,0.549721 -8.056198,0.649947 -0.604662,0.102251 -0.644616,0.513278 -0.644616,0.513278 0,0 -1.395971,3.807056 -1.53014,4.172526 -0.100777,0.272836 0.282057,0.239427 0.282057,0.239427 0,0 3.291054,0.410521 9.898807,0.410521 6.607752,0 10.131369,-0.410521 10.131369,-0.410521 0,0 0.387605,0.03544 0.286231,-0.237909 z"
     id="path115"
     style="fill:#fd6500;fill-opacity:1" /><path
     inkscape:connector-curvature="0"
     d="m 33.575281,15.442354 -0.148482,-0.02632 c -2.317871,-0.41052 -5.000091,-0.618564 -7.972714,-0.618564 -4.42107,0 -6.976871,0.460633 -7.81171,0.61249 -0.07335,0.01265 -0.133575,0.02379 -0.181279,0.03189 -0.335725,0.0567 -0.382238,0.237909 -0.387008,0.273848 l -0.0054,0.03037 -0.0077,0.02176 c 0,0 -0.571866,1.558053 -1.019697,2.778477 l 18.205406,-2.038426 c -0.161601,-0.439372 -0.27192,-0.74005 -0.27192,-0.74005 l -0.0089,-0.02986 -0.0036,-0.02227 c 0,-0.03544 -0.04174,-0.217661 -0.381641,-0.273342 z"
     id="path117"
     style="fill:#ffffff;fill-opacity:0.25;stroke-opacity:0.25" /></g></svg>