<?xml version="1.0" encoding="utf-8"?>
<!-- Generator: Adobe Illustrator 14.0.0, SVG Export Plug-In  -->
<!DOCTYPE svg PUBLIC "-//W3C//DTD SVG 1.1 Tiny//EN" "http://www.w3.org/Graphics/SVG/1.1/DTD/svg11-tiny.dtd" [
	<!ENTITY ns_flows "http://ns.adobe.com/Flows/1.0/">
]>
<svg version="1.1" baseProfile="tiny"
	 xmlns="http://www.w3.org/2000/svg" xmlns:xlink="http://www.w3.org/1999/xlink" xmlns:a="http://ns.adobe.com/AdobeSVGViewerExtensions/3.0/"
	 x="0px" y="0px" width="50px" height="67px" viewBox="0 -0.336 50 67" xml:space="preserve">
<defs>
</defs>
<path fill="#919191" d="M34.282,61.076c0,2.804-4.176,5.074-9.324,5.074s-9.324-2.271-9.324-5.074c0-2.803,4.176-5.074,9.324-5.074
	S34.282,58.273,34.282,61.076"/>
<path fill="#Fd6500" d="M24.988,61.527c-2.729-1.735-14.298-9.494-20.173-19.831c-2.517-3.705-3.668-8.999-3.668-16.74
	c0-17.801,6.008-23.808,23.808-23.808c17.805,0,23.813,6.007,23.813,23.808c0,7.342-1.026,12.444-3.23,16.056
	C39.748,51.721,27.773,59.757,24.988,61.527"/>
<path fill="#FFFFFF" d="M24.955,2.295c17.158,0,22.666,5.506,22.666,22.661c0,7.123-0.973,12.035-3.062,15.458l-0.032,0.052
	l-0.028,0.053c-5.275,9.76-15.963,17.314-19.511,19.643c-3.475-2.277-13.797-9.566-19.176-19.033l-0.045-0.081L5.715,40.97
	c-2.332-3.426-3.42-8.514-3.42-16.014C2.295,7.801,7.801,2.295,24.955,2.295 M24.955,0C6.467,0,0,6.465,0,24.956
	c0,7.745,1.139,13.372,3.818,17.306c6.891,12.126,21.17,20.616,21.17,20.616s14.789-8.798,21.53-21.269
	c2.376-3.896,3.397-9.329,3.397-16.654C49.916,6.465,43.445,0,24.955,0"/>
<path fill="#FFFFFF" d="M32.824,27.86c0,4.346-3.52,7.868-7.865,7.868c-4.345,0-7.867-3.522-7.867-7.868s3.522-7.866,7.867-7.866
	C29.305,19.994,32.824,23.514,32.824,27.86"/>
</svg>
