<?xml version="1.0" encoding="iso-8859-1"?>
<!-- Generator: Adobe Illustrator 14.0.0, SVG Export Plug-In . SVG Version: 6.00 Build 43363)  -->
<!DOCTYPE svg PUBLIC "-//W3C//DTD SVG 1.1//EN" "http://www.w3.org/Graphics/SVG/1.1/DTD/svg11.dtd">
<svg version="1.1" id="icon-m-framework-done-layer"
	 xmlns="http://www.w3.org/2000/svg" xmlns:xlink="http://www.w3.org/1999/xlink" x="0px" y="0px" width="48px" height="48px"
	 viewBox="0 0 48 48" style="enable-background:new 0 0 48 48;" xml:space="preserve">
<g id="icon-m-framework-done_1_">
	<rect style="fill:none;" width="48" height="48"/>
	<rect x="8.006" y="8" style="fill:none;" width="32" height="32"/>
	<g>
		<path fill="#Fd6500" d="M18.695,40c-0.009,0-0.019,0-0.028,0c-0.998-0.01-1.925-0.514-2.476-1.348L9.496,28.512
			c-0.913-1.383-0.532-3.244,0.851-4.157c1.382-0.913,3.243-0.531,4.157,0.851l4.241,6.426l13.966-20.33
			c0.939-1.365,2.808-1.71,4.172-0.773c1.365,0.938,1.712,2.805,0.773,4.172l-16.489,24C20.607,39.514,19.683,40,18.695,40
			L18.695,40z"/>
	</g>
</g>
</svg>
